HIERARCHY
ROOT Hips
{
  OFFSET 5.80788e-005 67.184 3.4734
  CHANNELS 6 Xposition Yposition Zposition Zrotation Xrotation Yrotation
  JOINT Chest
  {
    OFFSET 0 8.7983 -4.7612
    CHANNELS 3 Zrotation Xrotation Yrotation
    JOINT Chest2
    {
      OFFSET 0 8.0291 0.4195
      CHANNELS 3 Zrotation Xrotation Yrotation
      JOINT Chest3
      {
        OFFSET 0 9.9351 -2.2114
        CHANNELS 3 Zrotation Xrotation Yrotation
        JOINT Neck
        {
          OFFSET 0 22.3885 -0.4656
          CHANNELS 3 Zrotation Xrotation Yrotation
          JOINT Head
          {
            OFFSET -0.0001 12.643 3.4389
            CHANNELS 3 Zrotation Xrotation Yrotation
            End Site
            {
              OFFSET 0.0001 17.6655 0.5274
            }
          }
        }
        JOINT LeftCollar
        {
          OFFSET 2.2603 21.606 7.4023
          CHANNELS 3 Zrotation Xrotation Yrotation
          JOINT LeftShoulder
          {
            OFFSET 13.5163 -1.1332 -5.0146
            CHANNELS 3 Zrotation Xrotation Yrotation
            JOINT LeftElbow
            {
              OFFSET -0.0995 -28.05 -0.2431
              CHANNELS 3 Zrotation Xrotation Yrotation
              JOINT LeftWrist
              {
                OFFSET 0.0679 -23.3996 -0.1402
                CHANNELS 3 Zrotation Xrotation Yrotation
                JOINT LeftFinger1
                {
                  OFFSET 0.7932 -9.069 2.5189
                  CHANNELS 3 Zrotation Xrotation Yrotation
                  JOINT LeftFinger11
                  {
                    OFFSET -0.8272 -3.3923 0.5977
                    CHANNELS 3 Zrotation Xrotation Yrotation
                    JOINT LeftFinger12
                    {
                      OFFSET -0.5649 -2.3158 0.4082
                      CHANNELS 3 Zrotation Xrotation Yrotation
                      End Site
                      {
                        OFFSET -0.4919 -1.6479 0.2673
                      }
                    }
                  }
                }
                JOINT LeftFinger2
                {
                  OFFSET 0.9159 -9.2044 0.2193
                  CHANNELS 3 Zrotation Xrotation Yrotation
                  JOINT LeftFinger21
                  {
                    OFFSET 0.0117 -4.1944 -0.0248
                    CHANNELS 3 Zrotation Xrotation Yrotation
                    JOINT LeftFinger22
                    {
                      OFFSET 0.0071 -2.3249 -0.0142
                      CHANNELS 3 Zrotation Xrotation Yrotation
                      End Site
                      {
                        OFFSET -0.1475 -2.0882 0.0028
                      }
                    }
                  }
                }
                JOINT LeftFinger3
                {
                  OFFSET 0.6113 -8.7231 -2.0637
                  CHANNELS 3 Zrotation Xrotation Yrotation
                  JOINT LeftFinger31
                  {
                    OFFSET -0.1927 -3.8059 -0.2383
                    CHANNELS 3 Zrotation Xrotation Yrotation
                    JOINT LeftFinger32
                    {
                      OFFSET -0.1091 -2.1688 -0.1362
                      CHANNELS 3 Zrotation Xrotation Yrotation
                      End Site
                      {
                        OFFSET -0.2358 -1.9176 -0.0906
                      }
                    }
                  }
                }
                JOINT LeftFinger4
                {
                  OFFSET -0.6151 -8.0947 -3.5641
                  CHANNELS 3 Zrotation Xrotation Yrotation
                  JOINT LeftFinger41
                  {
                    OFFSET -0.4882 -2.341 -0.6462
                    CHANNELS 3 Zrotation Xrotation Yrotation
                    JOINT LeftFinger42
                    {
                      OFFSET -0.3575 -1.7167 -0.4742
                      CHANNELS 3 Zrotation Xrotation Yrotation
                      End Site
                      {
                        OFFSET -0.4187 -1.5237 -0.3496
                      }
                    }
                  }
                }
                JOINT LeftFinger0
                {
                  OFFSET -1.42 -1.8761 1.4223
                  CHANNELS 3 Zrotation Xrotation Yrotation
                  JOINT LeftFinger01
                  {
                    OFFSET -1.1471 -3.4929 2.6334
                    CHANNELS 3 Zrotation Xrotation Yrotation
                    JOINT LeftFinger02
                    {
                      OFFSET -0.823 -2.3 1.6571
                      CHANNELS 3 Zrotation Xrotation Yrotation
                      End Site
                      {
                        OFFSET -0.5822 -1.6914 1.1582
                      }
                    }
                  }
                }
              }
            }
          }
        }
        JOINT RightCollar
        {
          OFFSET -2.2603 21.606 7.4023
          CHANNELS 3 Zrotation Xrotation Yrotation
          JOINT RightShoulder
          {
            OFFSET -13.5187 -1.1334 -5.0155
            CHANNELS 3 Zrotation Xrotation Yrotation
            JOINT RightElbow
            {
              OFFSET 0.0994 -28.0499 -0.2431
              CHANNELS 3 Zrotation Xrotation Yrotation
              JOINT RightWrist
              {
                OFFSET -0.0679 -23.3996 -0.1402
                CHANNELS 3 Zrotation Xrotation Yrotation
                JOINT RightFinger1
                {
                  OFFSET -0.7932 -9.0691 2.5189
                  CHANNELS 3 Zrotation Xrotation Yrotation
                  JOINT RightFinger11
                  {
                    OFFSET 0.8272 -3.3923 0.5977
                    CHANNELS 3 Zrotation Xrotation Yrotation
                    JOINT RightFinger12
                    {
                      OFFSET 0.565 -2.3158 0.4082
                      CHANNELS 3 Zrotation Xrotation Yrotation
                      End Site
                      {
                        OFFSET 0.4919 -1.6479 0.2673
                      }
                    }
                  }
                }
                JOINT RightFinger2
                {
                  OFFSET -0.916 -9.2044 0.2193
                  CHANNELS 3 Zrotation Xrotation Yrotation
                  JOINT RightFinger21
                  {
                    OFFSET -0.0117 -4.1944 -0.0248
                    CHANNELS 3 Zrotation Xrotation Yrotation
                    JOINT RightFinger22
                    {
                      OFFSET -0.0071 -2.3249 -0.0142
                      CHANNELS 3 Zrotation Xrotation Yrotation
                      End Site
                      {
                        OFFSET 0.1475 -2.0882 0.0028
                      }
                    }
                  }
                }
                JOINT RightFinger3
                {
                  OFFSET -0.6113 -8.7231 -2.0637
                  CHANNELS 3 Zrotation Xrotation Yrotation
                  JOINT RightFinger31
                  {
                    OFFSET 0.1927 -3.8059 -0.2383
                    CHANNELS 3 Zrotation Xrotation Yrotation
                    JOINT RightFinger32
                    {
                      OFFSET 0.1091 -2.1688 -0.1362
                      CHANNELS 3 Zrotation Xrotation Yrotation
                      End Site
                      {
                        OFFSET 0.2358 -1.9176 -0.0906
                      }
                    }
                  }
                }
                JOINT RightFinger4
                {
                  OFFSET 0.6151 -8.0947 -3.564
                  CHANNELS 3 Zrotation Xrotation Yrotation
                  JOINT RightFinger41
                  {
                    OFFSET 0.4882 -2.341 -0.6462
                    CHANNELS 3 Zrotation Xrotation Yrotation
                    JOINT RightFinger42
                    {
                      OFFSET 0.3574 -1.7166 -0.4742
                      CHANNELS 3 Zrotation Xrotation Yrotation
                      End Site
                      {
                        OFFSET 0.4187 -1.5237 -0.3496
                      }
                    }
                  }
                }
                JOINT RightFinger0
                {
                  OFFSET 1.4199 -1.8761 1.4221
                  CHANNELS 3 Zrotation Xrotation Yrotation
                  JOINT RightFinger01
                  {
                    OFFSET 1.1472 -3.4929 2.6336
                    CHANNELS 3 Zrotation Xrotation Yrotation
                    JOINT RightFinger02
                    {
                      OFFSET 0.8229 -2.3 1.6571
                      CHANNELS 3 Zrotation Xrotation Yrotation
                      End Site
                      {
                        OFFSET 0.5822 -1.6914 1.1582
                      }
                    }
                  }
                }
              }
            }
          }
        }
      }
    }
  }
  JOINT RightHip
  {
    OFFSET -9.412 3.9771 -0.7758
    CHANNELS 3 Zrotation Xrotation Yrotation
    JOINT RightKnee
    {
      OFFSET -0.7531 -40.938 0
      CHANNELS 3 Zrotation Xrotation Yrotation
      JOINT RightAnkle
      {
        OFFSET 0 -40.1986 0
        CHANNELS 3 Zrotation Xrotation Yrotation
        JOINT RightToe
        {
          OFFSET 0 -4.4182 9.239
          CHANNELS 3 Zrotation Xrotation Yrotation
          End Site
          {
            OFFSET 0 0 6.1981
          }
        }
      }
    }
  }
  JOINT LeftHip
  {
    OFFSET 9.4119 3.9773 -0.7758
    CHANNELS 3 Zrotation Xrotation Yrotation
    JOINT LeftKnee
    {
      OFFSET 0.7532 -40.9383 0
      CHANNELS 3 Zrotation Xrotation Yrotation
      JOINT LeftAnkle
      {
        OFFSET 0 -40.1986 0
        CHANNELS 3 Zrotation Xrotation Yrotation
        JOINT LeftToe
        {
          OFFSET 0 -4.4182 9.239
          CHANNELS 3 Zrotation Xrotation Yrotation
          End Site
          {
            OFFSET 0 0 6.1981
          }
        }
      }
    }
  }
}
MOTION
Frames:	4
Frame Time:	0.0333333
39.8698 -5.91823 49.366 -7.70945e-007 76.1488 6.99381e-007 -0.464449 2.9852 -0.194167 -0.920629 5.97181 -0.364804 -0.92063 5.97183 -0.364804 -0.00218895 -3.23053 -44.0018 -2.47169 -16.8607 -31.4955 -3.72047 8.8673 -19.194 60.5739 4.22229 62.4156 41.8235 -47.5033 22.1596 30.7239 -23.4651 36.2374 3.97569e-016 -3.18055e-015 1.98785e-016 7.95139e-016 -9.54166e-015 -1.39149e-015 -0 -3.18055e-015 -0 3.97569e-016 -3.18055e-015 1.98785e-016 -0.01283 0.00232741 8.91115e-005 7.72434e-032 3.18055e-015 -1.39149e-015 3.97569e-016 -3.18055e-015 1.98785e-016 -0.0160451 0.00298762 0.000852465 -7.79763e-006 7.91082e-006 2.23947e-006 3.97569e-016 -3.18055e-015 1.98785e-016 -0.0125733 0.00312028 0.00282539 7.95139e-016 -6.36111e-015 -7.95139e-016 3.97569e-016 -3.18055e-015 1.98785e-016 7.95139e-016 -9.54166e-015 -1.39149e-015 -0 -3.18055e-015 -0 50.2575 -13.8705 11.0342 -55.9921 -0.673483 -52.6484 -36.8133 -39.7379 -22.0228 -8.68139 -31.542 -14.9839 -9.93923e-016 3.36106e-009 -1.59028e-015 -5.82507e-008 4.23158e-007 -6.36513e-007 -1.63997e-015 2.38542e-015 2.38542e-015 -9.93923e-016 3.36106e-009 -1.59028e-015 0.0129503 0.00231792 -8.56663e-005 -0 -7.95139e-016 -0 -9.93923e-016 3.36106e-009 -1.59028e-015 0.0163231 0.00303422 -0.000872902 -8.44835e-016 -7.95139e-016 3.97569e-016 -9.93923e-016 3.36106e-009 -1.59028e-015 0.0145793 0.00367965 -0.00326342 -2.48481e-016 7.95139e-016 -3.97569e-016 -9.93923e-016 3.36106e-009 -1.59028e-015 -5.82507e-008 4.23158e-007 -6.36513e-007 -1.63997e-015 2.38542e-015 2.38542e-015 -6.12096 9.85651 -52.8343 7.19624 20.9117 -22.1575 -14.3692 39.7163 9.80325 -7.15625e-015 3.18055e-015 2.38542e-015 3.66568 13.3477 47.534 -4.82411 6.72039 20.6057 5.88726 38.5544 -4.96581 -1.90329e-005 4.09097e-006 1.82333e-005 
39.8694 -5.9023 49.3526 5.93762e-008 76.2989 -1.11538e-007 -0.456111 2.861 -0.194663 -0.904168 5.72344 -0.367172 -0.90417 5.72345 -0.367173 -0.00223652 -2.95529 -44.0018 -2.34041 -16.7863 -31.2042 -3.94439 8.42785 -19.1202 60.5739 4.22229 62.4155 41.8078 -47.49 22.1486 30.0075 -23.9826 35.7651 7.95139e-016 0 -5.96354e-016 7.95139e-016 6.36111e-015 -1.98785e-016 1.19271e-015 0 -7.95139e-016 7.95139e-016 0 -5.96354e-016 -0.0128246 0.00232498 8.30825e-005 -3.97569e-016 3.18055e-015 5.96354e-016 7.95139e-016 0 -5.96354e-016 -0.0160616 0.00299831 0.000857105 1.19271e-015 3.18055e-015 -1.98785e-016 7.95139e-016 0 -5.96354e-016 -0.0125965 0.00311781 0.00283249 3.97569e-016 0 -9.93923e-016 7.95139e-016 0 -5.96354e-016 7.95139e-016 6.36111e-015 -1.98785e-016 1.19271e-015 0 -7.95139e-016 50.1723 -13.694 10.2878 -55.9294 -1.11143 -52.7972 -37.0799 -39.831 -22.2365 -8.04543 -31.6347 -14.4299 3.88388e-008 8.54799e-007 4.24339e-007 3.47873e-016 -1.59028e-015 -2.38542e-015 -1.94194e-008 8.54799e-007 -2.1217e-007 3.88388e-008 8.54799e-007 4.24339e-007 0.0129572 0.00231786 -8.77631e-005 -4.96962e-016 1.69616e-006 -1.59028e-015 3.88388e-008 8.54799e-007 4.24339e-007 0.0163437 0.00303542 -0.000874541 -4.43651e-007 1.24556e-006 -1.75155e-007 3.88388e-008 8.54799e-007 4.24339e-007 0.0145792 0.00367888 -0.00326109 -3.88181e-008 3.35746e-009 -4.2434e-007 3.88388e-008 8.54799e-007 4.24339e-007 3.47873e-016 -1.59028e-015 -2.38542e-015 -1.94194e-008 8.54799e-007 -2.1217e-007 -6.07674 9.57718 -52.3363 7.19614 20.9131 -22.1395 -13.7917 39.8338 9.10611 1.89919e-006 3.20527e-006 2.8256e-006 3.58939 13.2003 47.4738 -4.82411 6.6887 20.6047 5.89355 38.5674 -4.96758 -5.61986e-006 -3.24466e-006 1.37953e-006 
39.8689 -5.88634 49.3392 -3.00509e-007 76.4489 2.21019e-007 -0.447753 2.73693 -0.195234 -0.887676 5.47525 -0.369654 -0.887677 5.47526 -0.369654 -0.0022708 -2.68019 -44.0018 -2.20953 -16.7113 -30.9132 -4.16744 7.98804 -19.0482 60.5739 4.22228 62.4155 41.7921 -47.4768 22.1376 29.2836 -24.4944 35.2839 7.95139e-016 6.36111e-015 -1.39149e-015 0 0 -9.93923e-016 -3.97569e-016 0 -9.93923e-016 7.95139e-016 6.36111e-015 -1.39149e-015 -0.0128148 0.00233146 8.91022e-005 3.97569e-016 -3.18055e-015 9.93923e-016 7.95139e-016 6.36111e-015 -1.39149e-015 -0.016041 0.00300693 0.000858119 -1.59028e-015 0 -5.96354e-016 7.95139e-016 6.36111e-015 -1.39149e-015 -0.0126375 0.00313478 0.00284317 3.97569e-016 3.18055e-015 2.38542e-015 7.95139e-016 6.36111e-015 -1.39149e-015 0 0 -9.93923e-016 -3.97569e-016 0 -9.93923e-016 50.0895 -13.5164 9.54252 -55.8683 -1.55186 -52.9456 -37.3479 -39.9218 -22.4494 -7.4079 -31.7222 -13.8742 2.98177e-016 7.95139e-016 7.95139e-016 4.96962e-016 0 1.19271e-015 -9.93923e-016 0 1.19271e-015 2.98177e-016 7.95139e-016 7.95139e-016 0.0129502 0.00231595 -8.65787e-005 1.2921e-014 1.59028e-015 -0 2.98177e-016 7.95139e-016 7.95139e-016 0.0163367 0.00303351 -0.000873787 -2.08724e-015 -7.95139e-016 7.95139e-016 2.98177e-016 7.95139e-016 7.95139e-016 0.0146053 0.00368301 -0.00326495 1.9868e-007 1.25563e-007 -4.38378e-007 2.98177e-016 7.95139e-016 7.95139e-016 4.96962e-016 0 1.19271e-015 -9.93923e-016 0 1.19271e-015 -6.03026 9.29919 -51.8384 7.19686 20.9142 -22.1214 -13.2112 39.9458 8.40619 -1.25666e-005 -3.7836e-006 9.1219e-006 3.54553 13.023 47.4075 -4.8241 6.74419 20.606 5.88147 38.5397 -4.96395 -2.28452e-006 5.40642e-006 6.0995e-008 
39.8685 -5.87034 49.3258 8.47556e-008 76.599 -1.11471e-007 -0.439362 2.61288 -0.195881 -0.87113 5.22716 -0.372257 -0.87113 5.22717 -0.372257 -0.00234872 -2.40479 -44.0018 -2.07914 -16.6356 -30.6225 -4.38974 7.54825 -18.9781 60.5738 4.22235 62.4155 41.7764 -47.4636 22.1268 28.5524 -25.0005 34.7938 7.95139e-016 9.54166e-015 -1.98785e-016 1.19271e-015 6.36111e-015 3.97569e-016 7.95139e-016 6.36111e-015 2.5842e-015 7.95139e-016 9.54166e-015 -1.98785e-016 -0.0128345 0.00232462 8.95028e-005 -1.19271e-015 -3.18055e-015 1.98785e-016 7.95139e-016 9.54166e-015 -1.98785e-016 -0.0160522 0.00299962 0.000862738 -1.17593e-005 2.42645e-006 2.67106e-006 7.95139e-016 9.54166e-015 -1.98785e-016 -0.0126357 0.00313679 0.00284683 6.10058e-006 -1.24612e-006 -8.70909e-006 7.95139e-016 9.54166e-015 -1.98785e-016 1.19271e-015 6.36111e-015 3.97569e-016 7.95139e-016 6.36111e-015 2.5842e-015 50.0092 -13.3378 8.79797 -55.806 -1.98212 -53.0933 -37.6141 -40.0182 -22.6698 -6.7689 -31.8044 -13.3169 -1.94159e-008 8.54805e-007 -2.12169e-007 -3.97569e-016 -1.59028e-015 -3.97569e-016 -1.94159e-008 4.23157e-007 -2.12169e-007 -1.94159e-008 8.54805e-007 -2.12169e-007 0.0129501 0.0023155 -8.58082e-005 3.88204e-008 1.27973e-006 4.24339e-007 -1.94159e-008 8.54805e-007 -2.12169e-007 0.0163435 0.00303519 -0.000874452 3.88166e-008 8.59931e-007 4.24339e-007 -1.94159e-008 8.54805e-007 -2.12169e-007 0.0145651 0.00367566 -0.00325895 7.76221e-008 1.28151e-006 8.48676e-007 -1.94159e-008 8.54805e-007 -2.12169e-007 -3.97569e-016 -1.59028e-015 -3.97569e-016 -1.94159e-008 4.23157e-007 -2.12169e-007 -5.98157 9.01974 -51.3407 7.19631 20.9171 -22.1034 -12.6278 40.0518 7.70365 -3.69248e-006 -6.31254e-006 -8.42723e-007 3.48523 12.8612 47.344 -4.82451 6.75576 20.6062 5.87859 38.5324 -4.96303 -3.3364e-006 8.11464e-006 1.08488e-006 
